<svg width="402" height="402" viewBox="0 0 402 402" fill="none" xmlns="http://www.w3.org/2000/svg">
<path d="M1.3208 1.33789V401.338" stroke="#B3B3B3"/>
<path d="M11.5771 1.33789V401.338" stroke="#B3B3B3"/>
<path d="M21.8335 1.33789V401.338" stroke="#B3B3B3"/>
<path d="M32.0898 1.33789V401.338" stroke="#B3B3B3"/>
<path d="M42.3467 1.33789V401.338" stroke="#B3B3B3"/>
<path d="M52.603 1.33789V401.338" stroke="#B3B3B3"/>
<path d="M62.8594 1.33789V401.338" stroke="#B3B3B3"/>
<path d="M73.1157 1.33789V401.338" stroke="#B3B3B3"/>
<path d="M83.3721 1.33789V401.338" stroke="#B3B3B3"/>
<path d="M93.6284 1.33789V401.338" stroke="#B3B3B3"/>
<path d="M103.885 1.33789V401.338" stroke="#B3B3B3"/>
<path d="M114.142 1.33789V401.338" stroke="#B3B3B3"/>
<path d="M124.398 1.33789V401.338" stroke="#B3B3B3"/>
<path d="M134.654 1.33789V401.338" stroke="#B3B3B3"/>
<path d="M144.911 1.33789V401.338" stroke="#B3B3B3"/>
<path d="M155.167 1.33789V401.338" stroke="#B3B3B3"/>
<path d="M165.423 1.33789V401.338" stroke="#B3B3B3"/>
<path d="M175.68 1.33789V401.338" stroke="#B3B3B3"/>
<path d="M185.936 1.33789V401.338" stroke="#B3B3B3"/>
<path d="M196.193 1.33789V401.338" stroke="#B3B3B3"/>
<path d="M206.449 1.33789V401.338" stroke="#B3B3B3"/>
<path d="M216.706 1.33789V401.338" stroke="#B3B3B3"/>
<path d="M226.962 1.33789V401.338" stroke="#B3B3B3"/>
<path d="M237.218 1.33789V401.338" stroke="#B3B3B3"/>
<path d="M247.475 1.33789V401.338" stroke="#B3B3B3"/>
<path d="M257.731 1.33789V401.338" stroke="#B3B3B3"/>
<path d="M267.987 1.33789V401.338" stroke="#B3B3B3"/>
<path d="M278.244 1.33789V401.338" stroke="#B3B3B3"/>
<path d="M288.5 1.33789V401.338" stroke="#B3B3B3"/>
<path d="M298.757 1.33789V401.338" stroke="#B3B3B3"/>
<path d="M309.013 1.33789V401.338" stroke="#B3B3B3"/>
<path d="M319.27 1.33789V401.338" stroke="#B3B3B3"/>
<path d="M329.526 1.33789V401.338" stroke="#B3B3B3"/>
<path d="M339.782 1.33789V401.338" stroke="#B3B3B3"/>
<path d="M350.039 1.33789V401.338" stroke="#B3B3B3"/>
<path d="M360.295 1.33789V401.338" stroke="#B3B3B3"/>
<path d="M370.552 1.33789V401.338" stroke="#B3B3B3"/>
<path d="M380.808 1.33789V401.338" stroke="#B3B3B3"/>
<path d="M391.064 1.33789V401.338" stroke="#B3B3B3"/>
<path d="M401.321 1.33789V401.338" stroke="#B3B3B3"/>
<path d="M1.3208 1.33789H401.321" stroke="#B3B3B3"/>
<path d="M1.3208 11.5957H401.321" stroke="#B3B3B3"/>
<path d="M1.3208 21.8516H401.321" stroke="#B3B3B3"/>
<path d="M1.3208 32.1074H401.321" stroke="#B3B3B3"/>
<path d="M1.3208 42.3652H401.321" stroke="#B3B3B3"/>
<path d="M1.3208 52.6211H401.321" stroke="#B3B3B3"/>
<path d="M1.3208 62.877H401.321" stroke="#B3B3B3"/>
<path d="M1.3208 73.1328H401.321" stroke="#B3B3B3"/>
<path d="M1.3208 83.3906H401.321" stroke="#B3B3B3"/>
<path d="M1.3208 93.6465H401.321" stroke="#B3B3B3"/>
<path d="M1.3208 103.902H401.321" stroke="#B3B3B3"/>
<path d="M1.3208 114.16H401.321" stroke="#B3B3B3"/>
<path d="M1.3208 124.416H401.321" stroke="#B3B3B3"/>
<path d="M1.3208 134.672H401.321" stroke="#B3B3B3"/>
<path d="M1.3208 144.928H401.321" stroke="#B3B3B3"/>
<path d="M1.3208 155.186H401.321" stroke="#B3B3B3"/>
<path d="M1.3208 165.441H401.321" stroke="#B3B3B3"/>
<path d="M1.3208 175.697H401.321" stroke="#B3B3B3"/>
<path d="M1.3208 185.955H401.321" stroke="#B3B3B3"/>
<path d="M1.3208 196.211H401.321" stroke="#B3B3B3"/>
<path d="M1.3208 206.467H401.321" stroke="#B3B3B3"/>
<path d="M1.3208 216.723H401.321" stroke="#B3B3B3"/>
<path d="M1.3208 226.98H401.321" stroke="#B3B3B3"/>
<path d="M1.3208 237.236H401.321" stroke="#B3B3B3"/>
<path d="M1.3208 247.492H401.321" stroke="#B3B3B3"/>
<path d="M1.3208 257.75H401.321" stroke="#B3B3B3"/>
<path d="M1.3208 268.006H401.321" stroke="#B3B3B3"/>
<path d="M1.3208 278.262H401.321" stroke="#B3B3B3"/>
<path d="M1.3208 288.518H401.321" stroke="#B3B3B3"/>
<path d="M1.3208 298.775H401.321" stroke="#B3B3B3"/>
<path d="M1.3208 309.031H401.321" stroke="#B3B3B3"/>
<path d="M1.3208 319.287H401.321" stroke="#B3B3B3"/>
<path d="M1.3208 329.543H401.321" stroke="#B3B3B3"/>
<path d="M1.3208 339.801H401.321" stroke="#B3B3B3"/>
<path d="M1.3208 350.057H401.321" stroke="#B3B3B3"/>
<path d="M1.3208 360.312H401.321" stroke="#B3B3B3"/>
<path d="M1.3208 370.57H401.321" stroke="#B3B3B3"/>
<path d="M1.3208 380.826H401.321" stroke="#B3B3B3"/>
<path d="M1.3208 391.082H401.321" stroke="#B3B3B3"/>
<path d="M1.3208 401.338H401.321" stroke="#B3B3B3"/>
</svg>
